<?xml version="1.0" standalone="no"?>
<!DOCTYPE svg PUBLIC "-//W3C//DTD SVG 20010904//EN"
 "http://www.w3.org/TR/2001/REC-SVG-20010904/DTD/svg10.dtd">
<svg version="1.0" xmlns="http://www.w3.org/2000/svg"
 width="451.000000pt" height="594.000000pt" viewBox="0 0 451.000000 594.000000"
 preserveAspectRatio="xMidYMid meet">

<g transform="translate(0.000000,594.000000) scale(0.100000,-0.100000)"
fill="#000000" stroke="none">
<path d="M2215 5929 c-373 -22 -720 -134 -1060 -342 -358 -219 -652 -514 -826
-832 -122 -222 -193 -415 -245 -664 -163 -792 62 -1722 619 -2556 367 -549
849 -1029 1411 -1405 146 -97 191 -116 245 -100 69 20 360 221 559 387 768
641 1296 1526 1501 2518 53 254 75 646 52 905 -31 333 -121 661 -253 925 -52
102 -190 307 -273 405 -311 366 -748 630 -1200 724 -96 20 -383 51 -405 44 -3
0 -59 -4 -125 -9z m342 -324 c601 -85 1138 -482 1402 -1035 325 -684 264
-1614 -167 -2520 -301 -635 -806 -1229 -1370 -1613 l-100 -68 -123 87 c-643
455 -1167 1051 -1489 1694 -183 365 -304 752 -345 1108 -19 164 -19 458 0 606
18 140 70 347 120 481 170 456 535 838 1025 1074 233 112 409 162 685 194 77
10 270 5 362 -8z"/>
<path d="M2457 4995 c-55 -19 -85 -51 -92 -99 -14 -83 -29 -104 -97 -136 -77
-36 -84 -41 -135 -110 -50 -68 -57 -74 -116 -94 -76 -26 -124 -53 -182 -106
-73 -66 -103 -80 -172 -80 -65 0 -113 19 -189 72 -110 79 -161 74 -150 -15 6
-43 3 -56 -24 -103 -37 -66 -38 -107 -4 -158 26 -38 27 -48 6 -111 -5 -17 -6
-40 -1 -53 10 -27 64 -52 113 -52 46 0 99 -46 120 -103 9 -23 20 -94 25 -156
l8 -115 47 -40 c25 -23 46 -47 46 -55 0 -8 -16 -48 -36 -90 -28 -57 -39 -96
-45 -156 -4 -44 -15 -102 -23 -129 -33 -102 26 -189 117 -172 53 10 70 -10 69
-81 -1 -57 -22 -133 -38 -133 -3 0 -19 11 -36 25 -36 31 -61 32 -89 4 -20 -20
-21 -29 -16 -103 6 -77 0 -133 -34 -320 -10 -54 -10 -84 -1 -138 7 -38 12
-108 12 -158 0 -49 4 -100 10 -114 5 -14 43 -59 84 -100 96 -95 117 -137 125
-247 4 -50 12 -93 20 -103 20 -23 74 -20 131 9 56 28 84 31 120 10 58 -33 127
-10 203 68 29 29 66 79 82 110 28 53 29 58 17 102 -6 25 -12 54 -12 65 0 25
54 60 92 60 15 0 48 5 73 12 l45 12 43 -41 c57 -56 118 -83 190 -83 66 0 118
20 141 55 8 12 24 54 36 91 11 38 32 93 46 121 24 48 26 60 20 125 -6 65 -3
85 24 173 45 146 47 159 60 395 9 160 18 240 36 315 37 156 30 229 -29 294
-36 40 -57 93 -57 144 0 51 38 138 86 193 67 80 94 141 94 216 0 55 -6 75 -45
153 -25 50 -57 135 -71 189 -14 55 -32 112 -39 126 -13 25 -66 76 -117 111
-22 16 -22 19 -9 50 22 54 24 101 7 160 -33 111 -81 153 -163 142 -41 -5 -44
-3 -128 71 -112 99 -128 106 -198 81z m105 -87 c20 -18 63 -57 97 -87 l62 -54
54 7 c64 7 85 -8 105 -79 13 -45 10 -81 -10 -150 -16 -57 -1 -88 59 -125 66
-41 84 -73 116 -207 19 -79 38 -130 63 -170 26 -43 36 -73 40 -114 5 -68 -9
-101 -74 -179 -25 -30 -57 -79 -71 -108 -50 -107 -40 -242 25 -314 52 -58 58
-106 27 -237 -19 -80 -28 -164 -39 -346 -13 -227 -16 -247 -50 -358 -31 -99
-36 -130 -34 -195 2 -60 -2 -88 -19 -127 -12 -27 -29 -76 -38 -108 -22 -77
-43 -97 -100 -97 -61 0 -101 18 -163 74 -61 53 -89 63 -128 43 -16 -8 -48 -17
-71 -20 -65 -8 -127 -42 -149 -82 -16 -30 -17 -41 -7 -87 14 -67 1 -97 -74
-179 -59 -64 -79 -71 -137 -52 -57 19 -96 16 -141 -12 -22 -13 -50 -25 -62
-25 -21 0 -23 5 -23 48 0 26 -5 65 -11 87 -14 50 -86 152 -141 199 -71 61 -78
78 -78 192 0 56 -5 125 -10 154 -8 44 -6 75 15 182 16 84 25 162 25 228 0 55
3 100 6 100 3 0 17 -9 31 -20 26 -20 59 -26 79 -12 39 25 72 166 55 230 -15
54 -49 77 -111 74 -36 -1 -51 3 -65 18 -20 22 -22 77 -5 110 6 11 15 59 21
106 7 62 18 102 41 147 17 34 34 74 39 89 8 30 -6 98 -21 98 -5 0 -25 15 -44
34 l-36 33 0 90 c0 119 -20 183 -74 241 -39 41 -48 46 -106 53 -77 9 -87 17
-66 57 22 42 20 87 -6 139 l-22 43 24 48 c13 27 26 75 29 112 l6 65 68 -63
c87 -81 131 -101 223 -102 88 0 123 14 204 82 35 29 105 73 154 98 78 39 95
52 123 95 57 89 76 107 138 135 71 32 100 66 115 136 12 57 18 67 45 82 34 19
60 13 97 -20z"/>
<path d="M2713 4988 c-38 -41 -34 -78 9 -78 17 0 40 -8 50 -17 25 -22 52 -7
56 32 5 36 -10 50 -36 36 -18 -10 -21 -8 -24 16 -4 35 -28 40 -55 11z m19 -60
c-11 -11 -32 -3 -32 12 0 5 8 16 18 26 16 17 17 17 20 -5 2 -13 -1 -28 -6 -33z"/>
<path d="M1458 4758 c-35 -55 -27 -78 27 -78 55 0 83 51 47 83 -26 24 -57 21
-74 -5z m57 -8 c9 -15 -14 -40 -36 -40 -21 0 -25 20 -7 38 15 15 35 15 43 2z"/>
<path d="M1363 4636 c-25 -53 -2 -85 52 -72 17 4 25 13 25 27 0 17 -3 19 -14
10 -22 -18 -40 10 -21 35 20 26 19 34 -5 34 -13 0 -26 -12 -37 -34z"/>
<path d="M1430 1921 c0 -5 4 -12 9 -16 11 -6 3 -74 -12 -93 -11 -15 -37 2 -37
24 0 8 -4 14 -10 14 -21 0 -9 36 18 53 l27 18 -30 -6 c-31 -7 -65 -31 -65 -47
0 -19 64 -88 81 -88 27 0 47 38 51 95 2 40 0 50 -14 53 -10 2 -18 -1 -18 -7z"/>
<path d="M1506 1784 c-10 -26 -7 -61 8 -96 7 -18 18 -46 22 -62 14 -44 39 -56
65 -29 18 18 22 34 23 86 1 56 -2 69 -23 91 -28 30 -85 36 -95 10z m69 -19
c17 -16 25 -35 25 -59 0 -38 -15 -86 -27 -86 -11 0 -63 114 -63 138 0 18 11
29 33 31 4 1 19 -10 32 -24z"/>
</g>
</svg>
